<?xml version="1.0" standalone="no"?>
<!DOCTYPE svg PUBLIC "-//W3C//DTD SVG 1.1//EN" "http://www.w3.org/Graphics/SVG/1.1/DTD/svg11.dtd" >
<svg xmlns="http://www.w3.org/2000/svg" xmlns:xlink="http://www.w3.org/1999/xlink" version="1.1">
<metadata></metadata>
<defs>
<font id="gram.regularregular" horiz-adv-x="358" >
<font-face units-per-em="2048" ascent="1536" descent="-512" />
<missing-glyph horiz-adv-x="378" />
<glyph unicode="&#xfb01;" horiz-adv-x="864" d="M20 694v125h140q0 68 3 125t23.5 97t63.5 62.5t123 22.5q20 0 60 -4t93 -26l-16 -111q-47 12 -86 14t-53 2q-57 0 -67.5 -47t-10.5 -135h209v-125h-209v-694h-133v694h-140zM618 0v819h134v-819h-134zM618 920v153h134v-153h-134z" />
<glyph unicode="&#xfb02;" horiz-adv-x="864" d="M20 694v125h140q0 68 3 125t23.5 97t63.5 62.5t123 22.5q20 0 60 -4t93 -26l-16 -111q-47 12 -86 14t-53 2q-57 0 -67.5 -47t-10.5 -135h209v-125h-209v-694h-133v694h-140zM618 0v1061h134v-1061h-134z" />
<glyph horiz-adv-x="0" />
<glyph unicode="&#xd;" horiz-adv-x="579" />
<glyph unicode=" "  horiz-adv-x="378" />
<glyph unicode="&#x09;" horiz-adv-x="378" />
<glyph unicode="&#xa0;" horiz-adv-x="378" />
<glyph unicode="!" d="M113 0h133v154h-133v-154zM113 439.5v69.5v109v449h133v-449v-109.5v-69t-1 -43t-1 -29.5q0 -20 -1 -49t-3 -76h-121q-2 47 -3 75.5t-1 49.5q0 14 -1 29.5t-1 43z" />
<glyph unicode="&#x22;" horiz-adv-x="565" d="M113 1067h137l-14 -281h-109zM315 1067h138l-15 -281h-108z" />
<glyph unicode="#" horiz-adv-x="1157" d="M113 279v124h180l47 240h-166v127h188l60 297h139l-59 -297h252l59 297h141l-59 -297h149v-127h-172l-47 -240h158v-124h-180l-51 -279h-140l52 279h-252l-52 -279h-139l51 279h-159zM432 403h254l47 240h-252z" />
<glyph unicode="$" horiz-adv-x="878" d="M82 61l51 115q111 -39 192 -48t134 -9q113 0 171 51t58 135q0 59 -45 93t-112.5 56.5t-145.5 44t-145.5 55.5t-112.5 89t-45 148q0 68 26.5 117.5t69.5 83.5t97.5 52.5t109.5 22.5v88h133v-88q53 -4 125 -14.5t143 -38.5l-45 -107q-41 14 -88 21.5t-90 10.5t-75.5 4 t-45.5 1q-109 0 -168 -39t-59 -114q0 -53 45 -83t112.5 -51.5t145.5 -43t145.5 -57.5t112.5 -95.5t45 -155.5q0 -70 -23.5 -124t-64.5 -92t-96 -61.5t-119 -29.5v-104h-133v104q-66 4 -141.5 18.5t-161.5 44.5z" />
<glyph unicode="%" horiz-adv-x="1189" d="M113 725v188q0 39 16 68t44 48.5t62.5 28.5t71.5 9t72 -9t62.5 -28.5t44 -48.5t16.5 -68v-188q0 -43 -16.5 -72.5t-43 -47t-61.5 -26t-74 -8.5t-73.5 8.5t-61.5 26t-43 47t-16 72.5zM219 725q0 -29 15.5 -41t72.5 -12t72.5 12t15.5 41v188q0 20 -15.5 38t-72.5 18 t-72.5 -17.5t-15.5 -38.5v-188zM254 0l563 1067h139l-561 -1067h-141zM688 154v188q0 39 16.5 67.5t44 48t62.5 29t72 9.5t71.5 -9.5t62 -29t44 -48t16.5 -67.5v-188q0 -43 -16.5 -73t-43 -47.5t-61 -25.5t-73.5 -8t-74 8t-61.5 25.5t-43 47.5t-16.5 73zM795 154 q0 -29 15 -41.5t73 -12.5q57 0 72.5 12.5t15.5 41.5v188q0 20 -15.5 37.5t-72.5 17.5t-72.5 -17.5t-15.5 -37.5v-188z" />
<glyph unicode="&#x26;" horiz-adv-x="1083" d="M113 281q0 49 16 93t44 81t62.5 65.5t71.5 46.5q-51 106 -51 219q0 70 7 123.5t31.5 88t73 52t130.5 17.5t130 -17.5t72.5 -52t31.5 -88t7 -123.5q0 -53 -20.5 -94t-52 -73.5t-72.5 -58t-82 -46.5q39 -51 92 -120.5t113 -131.5q10 37 17 88t7 123h133q0 -111 -15 -188.5 t-40 -128.5l152 -156h-172l-58 57q-53 -45 -118.5 -56t-124.5 -11q-76 0 -145.5 4t-123 31.5t-85 87t-31.5 168.5zM246 281q0 -61 16.5 -95t49 -49.5t79 -18.5t105.5 -3q41 0 79.5 7t67.5 30q-66 63 -140.5 148t-125.5 157q-55 -29 -93 -79t-38 -97zM389 786q0 -84 43 -165 q31 14 62.5 30.5t56 36t40 44t15.5 54.5q0 82 -17.5 119t-90.5 37q-74 0 -91.5 -37t-17.5 -119z" />
<glyph unicode="'" horiz-adv-x="362" d="M113 1067h137l-14 -281h-109z" />
<glyph unicode="(" horiz-adv-x="471" d="M113 541q0 59 6 130.5t18.5 146.5t31.5 147.5t48 138.5h135q-25 -66 -44 -139.5t-32.5 -147.5t-21.5 -144.5t-8 -131.5t8 -132t23.5 -147t36 -149.5t44.5 -141.5h-137q-27 68 -47 141.5t-33.5 147.5t-20.5 145.5t-7 135.5z" />
<glyph unicode=")" horiz-adv-x="471" d="M113 -29q25 68 45 141.5t35.5 149.5t23.5 146.5t8 132.5q0 61 -8 131.5t-21.5 144.5t-33 147.5t-43.5 139.5h135q29 -66 48.5 -138.5t31.5 -147.5t18 -146.5t6 -130.5q0 -63 -7 -135t-21.5 -146t-34 -147.5t-45.5 -141.5h-137z" />
<glyph unicode="*" horiz-adv-x="825" d="M113 815l51 131l203 -104l-23 225h139l-22 -225l201 104l51 -131l-224 -65l140 -191l-121 -70l-96 199l-95 -199l-120 70l141 191z" />
<glyph unicode="+" horiz-adv-x="937" d="M113 340v127h290v319h134v-319h288v-127h-288v-315h-134v315h-290z" />
<glyph unicode="," horiz-adv-x="360" d="M113 154h135v-281h-123z" />
<glyph unicode="-" horiz-adv-x="796" d="M113 340v127h571v-127h-571z" />
<glyph unicode="." d="M113 0v154h133v-154h-133z" />
<glyph unicode="/" horiz-adv-x="804" d="M113 -66l444 1192h135l-442 -1192h-137z" />
<glyph unicode="0" horiz-adv-x="958" d="M102 387v281q0 119 16.5 195.5t58.5 121.5t116 63.5t188 18.5q115 0 187.5 -18.5t114.5 -63.5t57.5 -122t15.5 -195v-281q0 -117 -15.5 -193.5t-57.5 -121.5t-114.5 -63.5t-187.5 -18.5t-188.5 18.5t-115.5 63.5t-58.5 121.5t-16.5 193.5zM236 385q0 -92 11 -145.5 t39.5 -81t75 -35.5t117.5 -8q72 0 119 8t74.5 35.5t39 81t11.5 145.5v285q0 90 -11.5 144t-39 83t-73.5 37t-118 8t-120 -8t-75.5 -37t-38.5 -83t-11 -144v-285z" />
<glyph unicode="1" horiz-adv-x="583" d="M-4 924l346 137h119v-1061h-133v920l-295 -123z" />
<glyph unicode="2" horiz-adv-x="782" d="M41 750v32q0 88 17.5 143.5t57.5 87t103.5 43t155.5 11.5t155.5 -11.5t103.5 -43t58.5 -88t18.5 -144.5q0 -80 -34 -142.5t-86 -114.5t-114.5 -97t-120 -91t-100.5 -96.5t-57 -111.5h512v-127h-660v94q0 84 39 149.5t97.5 121t127 103.5t127 96t97.5 100.5t39 115.5 q0 55 -10.5 87t-35 49.5t-63.5 21.5t-94 4t-94 -4t-62.5 -20.5t-34 -48t-10.5 -87.5v-32h-133z" />
<glyph unicode="3" horiz-adv-x="821" d="M41 276v17h133v-17q0 -55 13.5 -87.5t40 -49t67.5 -20.5t96 -4t96 4t68 20.5t39 49t12 87.5v33q0 51 -11 83t-33.5 48.5t-57.5 22.5t-80 6h-86v127h53q55 0 96 4t68 20.5t39 48t12 87.5v24q0 55 -12 87t-39 49.5t-68 21.5t-96 4t-96 -4t-67.5 -21.5t-40 -49t-13.5 -87.5 v-22h-133v22q0 88 20.5 143.5t62.5 87t108.5 44t158.5 12.5t157.5 -12.5t108.5 -44t62.5 -87t19.5 -143.5v-24q0 -162 -67 -224q68 -61 67 -223v-33q0 -88 -19.5 -143t-62.5 -87t-108.5 -44t-157.5 -12t-158.5 12t-108.5 44t-62.5 87t-20.5 143z" />
<glyph unicode="4" horiz-adv-x="860" d="M20 242v112l488 707h141v-692h129v-127h-129v-242h-133v242h-496zM190 369h326v469q-78 -113 -163 -233t-163 -236z" />
<glyph unicode="5" horiz-adv-x="802" d="M51 233h133q0 -39 11.5 -62.5t36 -35.5t64.5 -16t95 -4t95 4t64.5 20.5t36 49t11.5 87.5v109q0 55 -11.5 87t-36 48.5t-64.5 20.5t-95 4q-113 0 -160 -17.5t-47 -72.5h-133v606h639v-125h-506v-289q35 10 91.5 16.5t115.5 6.5q92 0 156.5 -12.5t105.5 -44t59.5 -87 t18.5 -141.5v-109q0 -88 -18.5 -143t-59.5 -87t-105.5 -44t-156.5 -12t-156.5 12t-105.5 40t-59.5 75t-18.5 116z" />
<glyph unicode="6" horiz-adv-x="827" d="M82 276v68q0 10 1 30.5t4 45t7 49.5t12 41l263 551h147l-194 -440q32 8 102 8q92 0 156.5 -11.5t106.5 -43t60.5 -87t18.5 -143.5v-68q0 -88 -18.5 -143t-60.5 -87t-106.5 -44t-156.5 -12t-156.5 12t-106.5 44t-60.5 87t-18.5 143zM215 276q0 -55 11.5 -87.5t37 -49 t65.5 -20.5t95 -4t95 4t65.5 20.5t37 49t11.5 87.5v68q0 55 -11.5 88t-37 48.5t-65.5 19.5t-95 4t-95 -4t-65.5 -19.5t-37 -48.5t-11.5 -88v-68z" />
<glyph unicode="7" horiz-adv-x="708" d="M0 936v125h688v-109l-366 -952h-150l363 936h-535z" />
<glyph unicode="8" horiz-adv-x="901" d="M102 276v25q0 154 66 223q-39 33 -52.5 85.5t-13.5 138.5v32q0 88 19.5 143.5t62.5 87t108.5 44t158.5 12.5q92 0 157.5 -12.5t108.5 -44t62.5 -87t19.5 -143.5v-32q0 -160 -70 -224q35 -33 52.5 -86t17.5 -137v-25q0 -88 -19.5 -143t-62.5 -87t-108.5 -44t-157.5 -12 t-158 12t-109 44t-62.5 87t-19.5 143zM236 276q0 -55 12 -87.5t38.5 -49t67.5 -20.5t97 -4q55 0 96 4t67.5 20.5t39 49t12.5 87.5v25q0 51 -11.5 82t-34 48.5t-57.5 23.5t-80 6h-32q-55 0 -96.5 -4t-68 -20.5t-38.5 -48.5t-12 -87v-25zM236 748q0 -51 11 -83t33.5 -48.5 t56.5 -22.5t81 -6h33q55 0 96 4t67.5 20.5t39 48t12.5 87.5v32q0 55 -12.5 87t-39 49.5t-67.5 21.5t-96 4t-96.5 -4t-68 -21.5t-38.5 -49t-12 -87.5v-32z" />
<glyph unicode="9" horiz-adv-x="827" d="M61 717v63q0 88 18.5 143.5t60.5 87t106.5 44t156.5 12.5t157 -12.5t107 -44t60 -87t18 -143.5v-63q0 -10 -1 -31.5t-4 -46.5t-7 -48.5t-12 -39.5l-262 -551h-148l195 440q-33 -8 -103 -8q-92 0 -156.5 11.5t-106.5 43t-60.5 87t-18.5 143.5zM195 717q0 -55 11 -88 t36.5 -48.5t65.5 -19.5t95 -4t95.5 4t66 19.5t36.5 48.5t11 88v63q0 55 -11 88t-36.5 49.5t-65.5 20.5t-96 4q-55 0 -95 -4t-65.5 -20.5t-36.5 -49t-11 -88.5v-63z" />
<glyph unicode=":" d="M113 0v154h133v-154h-133zM113 596v154h133v-154h-133z" />
<glyph unicode=";" horiz-adv-x="360" d="M113 154h135v-281h-123zM115 596v154h133v-154h-133z" />
<glyph unicode="&#x3c;" horiz-adv-x="897" d="M113 293v158l671 299v-146l-516 -231l516 -230v-143z" />
<glyph unicode="=" horiz-adv-x="796" d="M113 156v125h571v-125h-571zM113 438v127h571v-127h-571z" />
<glyph unicode="&#x3e;" horiz-adv-x="897" d="M113 0v143l516 230l-516 231v146l671 -299v-158z" />
<glyph unicode="?" horiz-adv-x="790" d="M113 1014q43 16 77.5 26.5t65.5 16.5t59.5 8t61.5 2q55 0 108.5 -15.5t96.5 -46t69.5 -76.5t26.5 -110q0 -68 -20.5 -117t-51.5 -86.5t-66.5 -68.5t-66.5 -61.5t-51.5 -65.5t-20.5 -80v-98h-133v98q0 70 20.5 118t51.5 85t66.5 65.5t66.5 59t51.5 65.5t20.5 86 q0 31 -16.5 53.5t-42 38t-57.5 23.5t-62 8q-41 0 -88.5 -7t-124.5 -40zM268 0h133v154h-133v-154z" />
<glyph unicode="@" horiz-adv-x="1136" d="M113 211v565q0 90 21.5 145.5t64.5 86t104.5 42t140.5 11.5h250q80 0 141.5 -11.5t103.5 -42t63.5 -86t21.5 -145.5v-776h-133v33q-37 -27 -83 -35t-108 -8q-92 0 -154.5 14t-100 51t-54 100.5t-16.5 159.5v70q0 96 16.5 159.5t54 100.5t100 51.5t154.5 14.5 q61 0 107.5 -7.5t83.5 -31.5v108q0 86 -47 121t-150 35h-252q-102 0 -149 -34t-47 -120v-571q0 -135 49 -214t176 -79h109v-125h-107q-190 0 -275 100.5t-85 317.5zM510 315q0 -61 9 -100t30.5 -61.5t58.5 -30.5t92 -8t92 8t58.5 30.5t31 61.5t9.5 100v97q0 53 -9.5 86.5 t-32 54t-59 28t-90.5 7.5q-55 0 -92 -8.5t-58.5 -32t-30.5 -62.5t-9 -100v-70z" />
<glyph unicode="A" horiz-adv-x="921" d="M10 0l377 1061h150l374 -1061h-137l-98 283h-430l-99 -283h-137zM291 410h342l-172 489z" />
<glyph unicode="B" horiz-adv-x="925" d="M113 0v1061h415q92 0 154.5 -6t100.5 -34t54.5 -83t16.5 -154v-26q0 -84 -16.5 -136.5t-69.5 -82.5q53 -35 69.5 -88.5t16.5 -135.5v-34q0 -96 -16.5 -152.5t-54.5 -85.5t-100 -36t-155 -7h-415zM246 125h282q55 0 93 2t59.5 17.5t31 46t9.5 90.5v34q0 51 -7 84 t-24.5 49.5t-45.5 22.5t-71 6h-327v-352zM246 606h282q55 0 93 2t59.5 16.5t31 45t9.5 88.5v26q0 55 -9.5 86t-31 45.5t-59 17.5t-93.5 3h-282v-330z" />
<glyph unicode="C" horiz-adv-x="854" d="M82 389v281q0 119 28.5 195.5t86 121.5t142.5 62.5t198 17.5q70 0 147.5 -6t130.5 -29l-29 -112q-18 6 -52 10t-70.5 7t-71.5 4t-55 1q-74 0 -133.5 -13.5t-101.5 -45t-64.5 -83.5t-22.5 -130v-281q0 -78 22.5 -130t64.5 -85t101.5 -46t133.5 -13q20 0 56 2t72.5 5 t70.5 6t50 7l29 -108q-53 -20 -131 -28.5t-147 -8.5q-104 0 -189.5 18.5t-144 63.5t-90 121.5t-31.5 195.5z" />
<glyph unicode="D" horiz-adv-x="966" d="M113 0v1061h446q92 0 154.5 -18.5t100.5 -59.5t54.5 -107.5t16.5 -162.5v-369q0 -96 -16.5 -161.5t-54.5 -106.5t-100.5 -58.5t-154.5 -17.5h-446zM246 125h313q113 0 153 48t40 171v369q0 125 -40 173t-153 48h-313v-809z" />
<glyph unicode="E" horiz-adv-x="854" d="M113 0v1061h680v-125h-547v-334h504v-125h-504v-352h547v-125h-680z" />
<glyph unicode="F" horiz-adv-x="827" d="M113 0v1061h673v-125h-540v-311h497v-125h-497v-500h-133z" />
<glyph unicode="G" horiz-adv-x="944" d="M82 389v279q0 119 31.5 196.5t92 122.5t148.5 62.5t199 17.5q35 0 76 -1t82 -5t77.5 -11.5t63.5 -17.5l-29 -112q-18 6 -55 10t-77 7t-79 4t-59 1q-72 0 -134.5 -13.5t-107.5 -45t-70.5 -85t-25.5 -130.5v-279q0 -78 17.5 -130t57.5 -85t104.5 -46t158.5 -13q29 0 74 1 t86 5v299h-135v127h268v-522q-25 -10 -60.5 -16.5t-75.5 -10.5t-81 -6t-76 -2q-111 0 -198 18.5t-147.5 63.5t-93 121.5t-32.5 195.5z" />
<glyph unicode="H" horiz-adv-x="1005" d="M113 0v1061h133v-434h514v434h133v-1061h-133v500h-514v-500h-133z" />
<glyph unicode="I" d="M113 0v1061h133v-1061h-133z" />
<glyph unicode="J" horiz-adv-x="712" d="M-20 51l45 121q94 -43 161.5 -50t83.5 -7q47 0 84 8t61.5 31.5t38 65.5t13.5 112v729h133v-729q0 -96 -16.5 -161t-55.5 -105.5t-102.5 -58t-157.5 -17.5q-10 0 -41.5 1t-73.5 7t-89.5 18.5t-83.5 34.5z" />
<glyph unicode="K" horiz-adv-x="925" d="M113 0v1061h133v-574l491 574h172l-399 -475l399 -586h-161l-326 487l-176 -192v-295h-133z" />
<glyph unicode="L" horiz-adv-x="786" d="M113 0v1061h133v-940h520v-121h-653z" />
<glyph unicode="M" horiz-adv-x="1224" d="M113 0v1061h219l280 -893l281 893h219v-1061h-133v899l-281 -899h-172l-280 901v-901h-133z" />
<glyph unicode="N" horiz-adv-x="1036" d="M113 0v1061h204l474 -899v899h133v-1061h-195l-483 893v-893h-133z" />
<glyph unicode="O" horiz-adv-x="968" d="M82 389v279q0 119 20.5 196.5t67.5 122.5t124 62.5t191 17.5q115 0 192 -17.5t124 -62.5t66.5 -123t19.5 -196v-279q0 -119 -19.5 -195.5t-66.5 -121.5t-124 -63.5t-192 -18.5t-191.5 18.5t-123.5 63.5t-67.5 121.5t-20.5 195.5zM215 389q0 -92 15.5 -146.5t47 -83 t83 -36.5t122.5 -8q72 0 123 8t84 36.5t48.5 83t15.5 146.5v279q0 92 -15.5 146t-47.5 83t-83 37t-123 8q-74 0 -125 -8t-82.5 -37t-47 -83t-15.5 -146v-279z" />
<glyph unicode="P" horiz-adv-x="884" d="M113 0v1061h407q92 0 153.5 -11.5t99.5 -45t54.5 -93t16.5 -155.5v-8q0 -96 -16.5 -157t-54.5 -93.5t-99.5 -44t-153.5 -11.5h-274v-442h-133zM246 567h274q55 0 92 5.5t58.5 23.5t31 54t9.5 98v8q0 61 -9.5 97t-31 54.5t-58.5 23.5t-92 5h-274v-369z" />
<glyph unicode="Q" horiz-adv-x="968" d="M82 389v279q0 119 20.5 196.5t67.5 122.5t124 62.5t191 17.5q115 0 192 -17.5t124 -62.5t66.5 -123t19.5 -196v-279q0 -129 -21.5 -208t-74.5 -124l122 -163h-168l-77 110q-35 -8 -83.5 -11t-99.5 -3q-115 0 -191.5 18.5t-123.5 63.5t-67.5 121.5t-20.5 195.5zM215 389 q0 -92 15.5 -146.5t47 -83t83 -36.5t122.5 -8q72 0 123 8t84 36.5t48.5 83t15.5 146.5v279q0 92 -15.5 146t-47.5 83t-83 37t-123 8q-74 0 -125 -8t-82.5 -37t-47 -83t-15.5 -146v-279z" />
<glyph unicode="R" horiz-adv-x="919" d="M113 0v1061h409q92 0 153.5 -11.5t99.5 -45t54.5 -93t16.5 -155.5v-8q0 -121 -23.5 -184.5t-89.5 -92.5l187 -471h-148l-174 444h-352v-444h-133zM246 569h276q55 0 92 5.5t58.5 23.5t31 53t9.5 97v8q0 61 -9.5 97t-31 54.5t-58 23.5t-92.5 5h-276v-367z" />
<glyph unicode="S" horiz-adv-x="878" d="M82 57l51 115q111 -39 192 -48t134 -9q113 0 171 51t58 135q0 59 -45 93t-112.5 56.5t-145.5 44t-145.5 55.5t-112.5 89t-45 147q0 76 31.5 128.5t83 86t113 49t122.5 15.5q20 0 57 -1t85.5 -6t102.5 -16.5t109 -31.5l-45 -107q-41 14 -88 21.5t-90 10.5t-75.5 4t-45.5 1 q-109 0 -168 -39t-59 -115q0 -53 45 -82.5t112.5 -51t145.5 -43t145.5 -57.5t112.5 -95.5t45 -155.5q0 -78 -28.5 -136.5t-78.5 -97t-116 -58t-139 -19.5q-78 0 -172 13t-205 54z" />
<glyph unicode="T" horiz-adv-x="847" d="M41 936v125h766v-125h-318v-936h-133v936h-315z" />
<glyph unicode="U" horiz-adv-x="983" d="M98 389v672h133v-672q0 -92 14.5 -146.5t45.5 -83t80 -36.5t121 -8t122 8t80.5 36.5t44 83t13.5 146.5v672h133v-672q0 -119 -18.5 -195.5t-63.5 -121.5t-121 -63.5t-188 -18.5q-115 0 -192 18.5t-122 63.5t-63.5 121.5t-18.5 195.5z" />
<glyph unicode="V" horiz-adv-x="921" d="M10 1061h137l314 -899l313 899h137l-374 -1061h-150z" />
<glyph unicode="W" horiz-adv-x="1232" d="M20 1061h132l170 -899l210 862h168l211 -862l170 899h131l-196 -1061h-187l-213 813l-213 -813h-186z" />
<glyph unicode="X" horiz-adv-x="942" d="M10 1061h158l303 -436l303 436h158l-381 -549l352 -512h-158l-274 397l-272 -397h-158l352 512z" />
<glyph unicode="Y" horiz-adv-x="913" d="M0 1061h154l301 -496l305 496h153l-391 -637v-424h-133v424z" />
<glyph unicode="Z" horiz-adv-x="849" d="M61 0v111l564 825h-564v125h727v-113l-555 -823h553v-125h-725z" />
<glyph unicode="[" horiz-adv-x="460" d="M113 -66v1192h235v-114h-102v-961h102v-117h-235z" />
<glyph unicode="\" horiz-adv-x="804" d="M113 1126h135l444 -1192h-137z" />
<glyph unicode="]" horiz-adv-x="460" d="M113 51h102v961h-102v114h235v-1192h-235v117z" />
<glyph unicode="^" horiz-adv-x="806" d="M113 516l211 545h161l209 -545h-145l-146 383l-147 -383h-143z" />
<glyph unicode="_" horiz-adv-x="987" d="M113 -100h761v-115h-761v115z" />
<glyph unicode="`" horiz-adv-x="483" d="M113 1067h166l92 -281h-95z" />
<glyph unicode="a" horiz-adv-x="768" d="M61 244q0 125 79 185t220 60h193v95q0 76 -50 98.5t-130 22.5q-27 0 -90.5 -4.5t-161.5 -28.5l-37 114q78 29 157 36t132 7q76 0 134 -13t98 -46t60.5 -89t20.5 -140v-541h-133v90q-47 -55 -107.5 -77.5t-119.5 -22.5q-137 0 -201 68.5t-64 185.5zM195 244 q0 -129 131 -129q55 0 117.5 25.5t109.5 84.5v140h-182q-31 0 -63 -6.5t-57.5 -19.5t-40.5 -36.5t-15 -58.5z" />
<glyph unicode="b" horiz-adv-x="839" d="M113 0v1102h133v-314q37 27 82 34t108 7q90 0 151.5 -14t99.5 -51t54.5 -99.5t16.5 -156.5v-195q0 -96 -16.5 -158.5t-54.5 -99.5t-99.5 -51t-151.5 -14q-41 0 -98 20.5t-92 79.5v-90h-133zM246 371q0 -123 39 -189.5t151 -66.5q55 0 91 8t57.5 29.5t31 60.5t9.5 100v195 q0 61 -9.5 99t-31 59.5t-57 30t-91.5 8.5q-53 0 -90 -7.5t-59.5 -26t-31.5 -52t-9 -87.5v-161z" />
<glyph unicode="c" horiz-adv-x="708" d="M82 311v197q0 94 20.5 156.5t63.5 99.5t109.5 51t156.5 14q55 0 123 -7t113 -23l-23 -115q-14 4 -43 8t-61.5 7t-62 4.5t-46.5 1.5q-55 0 -96 -8.5t-67.5 -30t-40 -59.5t-13.5 -99v-197q0 -61 13.5 -99t40 -59.5t67.5 -29.5t96 -8q16 0 46 1t62.5 4t61.5 6t43 7l23 -113 q-45 -16 -113 -23t-123 -7q-90 0 -156.5 14t-109.5 51t-63.5 98.5t-20.5 157.5z" />
<glyph unicode="d" horiz-adv-x="839" d="M82 313v195q0 94 16.5 156.5t54 99.5t99 51t151.5 14q63 0 108.5 -7t82.5 -34v314h133v-1102h-133v90q-35 -59 -92.5 -79.5t-98.5 -20.5q-90 0 -151.5 14t-99 51t-54 99.5t-16.5 158.5zM215 313q0 -61 8 -100t29.5 -60.5t58.5 -29.5t92 -8q113 0 152 66.5t39 189.5v161 q0 53 -9.5 87t-32 52.5t-59 26t-90.5 7.5q-55 0 -92 -8.5t-58.5 -30t-29.5 -59.5t-8 -99v-195z" />
<glyph unicode="e" horiz-adv-x="782" d="M72 313v195q0 94 17 156.5t55 99.5t100.5 51t152.5 14q92 0 153.5 -14t98.5 -51t53.5 -99.5t16.5 -156.5v-113h-514v-84q0 -61 18.5 -99t52 -59.5t81 -29.5t102.5 -8q16 0 69.5 12t139.5 49l53 -102q-37 -29 -75 -46.5t-72.5 -25.5t-64.5 -10t-50 -2q-92 0 -164 14 t-121 51t-75.5 99.5t-26.5 158.5zM205 526h381q-2 53 -11.5 88t-31 54.5t-57.5 28t-89 8.5q-104 0 -146 -36t-46 -143z" />
<glyph unicode="f" horiz-adv-x="505" d="M20 694v125h140q0 68 3 125t23.5 97t63.5 62.5t123 22.5q20 0 60 -4t93 -26l-16 -111q-47 12 -86 14t-53 2q-57 0 -67.5 -47t-10.5 -135h209v-125h-209v-694h-133v694h-140z" />
<glyph unicode="g" horiz-adv-x="839" d="M82 311v195q0 96 16.5 158.5t54 99.5t99 51t151.5 14q41 0 98.5 -20.5t92.5 -79.5v90h133v-866q0 -96 -14.5 -158.5t-50 -98.5t-96 -50.5t-152.5 -14.5q-29 0 -64 1t-69.5 4.5t-67.5 9.5t-55 14l20 117q14 -4 47 -8.5t70 -7.5t69.5 -4t49.5 -1q55 0 91 8.5t55.5 30 t26.5 59t7 99.5v78q-37 -27 -82 -34t-109 -7q-90 0 -151.5 14t-99 51t-54 98.5t-16.5 157.5zM215 311q0 -61 8 -99t29.5 -59.5t58.5 -29.5t92 -8q53 0 90 7t59.5 25.5t32 52t9.5 87.5v162q0 123 -39 189.5t-152 66.5q-55 0 -92 -8.5t-58.5 -30t-29.5 -60.5t-8 -100v-195z " />
<glyph unicode="h" horiz-adv-x="833" d="M113 0v1102h133v-373q74 68 133 84t110 16q61 0 107.5 -23.5t77.5 -62t46 -91t15 -109.5v-543h-133v543q0 66 -28.5 114t-104.5 48q-35 0 -89 -15.5t-132 -85.5v-604h-135z" />
<glyph unicode="i" d="M113 0v819h133v-819h-133zM113 920v153h133v-153h-133z" />
<glyph unicode="j" horiz-adv-x="360" d="M-162 -344l12 113q16 -4 40 -7.5t46.5 -4.5t42 -1h27.5q41 0 62.5 16.5t32 48.5t12.5 81t2 116v801h133v-801q0 -98 -4 -170.5t-26.5 -121t-72 -72t-141.5 -23.5h-28.5t-42 3.5t-49 7.5t-46.5 14zM115 920v153h133v-153h-133z" />
<glyph unicode="k" horiz-adv-x="806" d="M113 0v1102h133v-639l387 356h184l-301 -282l295 -537h-156l-233 444l-176 -157v-287h-133z" />
<glyph unicode="l" d="M113 0v1061h133v-1061h-133z" />
<glyph unicode="m" horiz-adv-x="1163" d="M113 0v819h129v-90q27 37 57.5 56.5t60 29.5t53 12t33.5 2q51 0 94.5 -18t69.5 -47q27 25 61 38t65.5 19t59 7t40.5 1q59 0 103 -23.5t71.5 -62t41 -90t13.5 -108.5v-545h-133v545q0 33 -4 61.5t-17.5 50t-36 35t-59.5 13.5q-14 0 -60 -5.5t-96 -37.5q6 -25 8.5 -56 t2.5 -61v-545h-133v545q0 33 -4.5 61.5t-15.5 50t-32.5 35t-56.5 13.5q-8 0 -25.5 -3.5t-42 -14.5t-54.5 -34.5t-60 -64.5v-588h-133z" />
<glyph unicode="n" horiz-adv-x="843" d="M113 0v819h133v-90q74 68 136.5 84t113.5 16q61 0 107 -23.5t78 -62t48 -91t16 -109.5v-543h-133v543q0 66 -30.5 114t-106.5 48q-35 0 -92 -15.5t-135 -85.5v-604h-135z" />
<glyph unicode="o" horiz-adv-x="784" d="M72 313v193q0 96 16 158.5t53 99.5t98.5 51t153.5 14q90 0 151.5 -14t98.5 -51t53.5 -99.5t16.5 -158.5v-193q0 -96 -16.5 -158.5t-53.5 -99.5t-98.5 -51t-151.5 -14q-92 0 -153.5 14t-98.5 51t-53 99.5t-16 158.5zM205 311q0 -61 8 -99t29.5 -59.5t58.5 -29.5t92 -8 t91 8t57.5 29.5t30 59.5t8.5 99v195q0 61 -8.5 100t-30 60.5t-57 30t-91.5 8.5q-55 0 -92 -8.5t-58.5 -30t-29.5 -60.5t-8 -100v-195z" />
<glyph unicode="p" horiz-adv-x="839" d="M113 -369v1188h133v-90q35 59 92 79.5t98 20.5q90 0 151.5 -14t99.5 -51t54.5 -99.5t16.5 -158.5v-195q0 -96 -16.5 -157.5t-54.5 -98.5t-99.5 -51t-151.5 -14q-63 0 -108 7t-82 34v-400h-133zM246 287q0 -53 9 -87t31.5 -52.5t59.5 -25.5t90 -7q55 0 91 8t57.5 29.5 t31 59.5t9.5 99v195q0 61 -9.5 100t-31 60.5t-57 30t-91.5 8.5q-113 0 -151.5 -67t-38.5 -189v-162z" />
<glyph unicode="q" horiz-adv-x="849" d="M82 311v195q0 96 16.5 158.5t54 99.5t99 51t151.5 14q41 0 98.5 -20.5t92.5 -79.5v90h133v-1188h-133v400q-37 -27 -82 -34t-109 -7q-90 0 -151.5 14t-99 51t-54 98.5t-16.5 157.5zM215 311q0 -61 8 -99t29.5 -59.5t58.5 -29.5t92 -8q53 0 90 7t59.5 25.5t32 52t9.5 87.5 v162q0 123 -39 189.5t-152 66.5q-55 0 -92 -8.5t-58.5 -30t-29.5 -60.5t-8 -100v-195z" />
<glyph unicode="r" horiz-adv-x="534" d="M113 0v819h133v-76q31 29 70.5 45.5t79.5 25.5t74 12t54 3v-124q-8 0 -38.5 -4.5t-71.5 -14.5t-85 -28.5t-79 -49.5v-608h-137z" />
<glyph unicode="s" horiz-adv-x="698" d="M66 604q0 61 27.5 103.5t71.5 70t96 39.5t101 12q31 0 96.5 -5t155.5 -40l-34 -110q-70 23 -130.5 27t-80.5 4q-29 0 -58.5 -5.5t-54.5 -16.5t-41 -30.5t-16 -48.5q0 -39 33.5 -61.5t84 -39t109.5 -33.5t109.5 -46t84 -74t33.5 -119q0 -61 -23.5 -107t-62.5 -76t-89 -44 t-103 -14q-63 0 -131 11t-158 42l41 119q92 -31 144.5 -39t93.5 -8q63 0 109 27.5t46 88.5q0 45 -33.5 71t-84 42t-110 31.5t-109.5 41t-83.5 69.5t-33.5 118z" />
<glyph unicode="t" horiz-adv-x="540" d="M20 694v125h134v238h133v-238h194v-125h-194v-387q0 -88 10 -135t68 -47q14 0 53 2t86 14l16 -110q-53 -23 -93 -27t-60 -4q-80 0 -123 22.5t-63.5 62.5t-23.5 97.5t-3 124.5v387h-134z" />
<glyph unicode="u" horiz-adv-x="845" d="M98 276v543h133v-543q0 -33 2.5 -62.5t12.5 -51t30.5 -34.5t57.5 -13t111.5 23.5t154.5 72.5v608h133v-819h-129l-4 90q-80 -53 -157.5 -76.5t-129.5 -23.5q-123 0 -169 67.5t-46 218.5z" />
<glyph unicode="v" horiz-adv-x="765" d="M0 819h141l244 -704l240 704h141l-293 -819h-176z" />
<glyph unicode="w" horiz-adv-x="944" d="M41 819h131l96 -657l152 305h102l154 -305l96 657h131l-115 -819h-165l-152 299l-152 -299h-163z" />
<glyph unicode="x" horiz-adv-x="782" d="M0 0l305 410l-305 409h168l223 -299l221 299h170l-305 -409l305 -410h-170l-221 299l-223 -299h-168z" />
<glyph unicode="y" horiz-adv-x="768" d="M0 819h143l244 -661l240 661h141l-442 -1188h-142l131 344z" />
<glyph unicode="z" horiz-adv-x="794" d="M82 0v111l459 583h-459v125h631v-110l-453 -584h453v-125h-631z" />
<glyph unicode="{" horiz-adv-x="516" d="M113 459v127q27 0 42 3t22 17.5t8 45t1 85.5v250q0 72 28 105.5t75 33.5h114v-114h-61q-16 0 -19.5 -8.5t-3.5 -18.5v-248q0 -86 -7 -135t-38 -80q27 -31 36 -83t9 -132v-229q0 -10 3.5 -18.5t19.5 -8.5h61v-117h-114q-47 0 -75 35t-28 107v231q0 55 -1 86t-8 45.5 t-22.5 17.5t-41.5 3z" />
<glyph unicode="|" d="M113 -66v1192h133v-1192h-133z" />
<glyph unicode="}" horiz-adv-x="516" d="M113 51h61q16 0 19.5 8.5t3.5 18.5v229q0 80 9 132.5t36 82.5q-31 31 -38 80t-7 135v248q0 10 -3.5 18.5t-19.5 8.5h-61v114h114q47 0 75 -33.5t28 -105.5v-250q0 -55 1 -85.5t8 -45t21.5 -17.5t42.5 -3v-127q-29 0 -43 -3t-21 -17.5t-8 -45.5t-1 -86v-231 q0 -72 -28 -107t-75 -35h-114v117z" />
<glyph unicode="~" horiz-adv-x="929" d="M113 518q51 45 99 70.5t107 25.5q49 0 82 -9t64 -21.5t63.5 -21.5t79.5 -9q31 0 60.5 18.5t66.5 49.5l82 -97q-53 -45 -101 -70.5t-108 -25.5q-49 0 -80.5 9t-61.5 20.5t-64 20.5t-83 9q-33 0 -61.5 -18t-64.5 -47z" />
<glyph unicode="&#xa1;" horiz-adv-x="337" d="M102 201v109.5v69.5t1 43t1 30q0 20 1 48.5t4 76.5h120q2 -47 3 -76t1 -49q0 -14 1.5 -29.5t1.5 -43.5v-70v-109v-449h-134v449zM102 666v153h134v-153h-134z" />
<glyph unicode="&#xa2;" horiz-adv-x="790" d="M102 311v197q0 80 14.5 136t44 93t76 57.5t109.5 28.5v138h133v-132q53 -2 110.5 -8t98.5 -22l-22 -115q-14 4 -43 8t-62 7t-62.5 4.5t-45.5 1.5q-55 0 -96.5 -8.5t-68 -30t-39.5 -59.5t-13 -99v-197q0 -61 13 -99t39.5 -59.5t67.5 -29.5t97 -8q16 0 45.5 1t62.5 4 t61.5 6t43.5 7l22 -113q-41 -16 -98.5 -22t-110.5 -8v-121h-133v127q-127 14 -185.5 85t-58.5 230z" />
<glyph unicode="&#xa3;" horiz-adv-x="972" d="M102 408v120h115v195q0 88 12.5 152.5t47 107.5t97 63.5t163.5 20.5q92 0 153.5 -12.5t98 -40t52 -74.5t15.5 -117h-133q0 39 -8 62.5t-28.5 36t-57.5 16.5t-92 4q-63 0 -100.5 -13.5t-57 -40t-24.5 -68.5t-5 -97v-195h215v-120h-215v-287h520v-121h-653v408h-115z" />
<glyph unicode="&#xa4;" horiz-adv-x="1003" d="M102 741l82 86l121 -127q41 33 90 51.5t107 18.5q57 0 106 -18.5t90 -51.5l121 127l82 -86l-129 -129q16 -33 26.5 -71.5t10.5 -79.5q0 -45 -11.5 -85t-31.5 -75l129 -129l-82 -86l-125 131q-78 -61 -186 -61q-53 0 -100.5 15t-86.5 46l-125 -131l-81 86l129 129 q-20 35 -31.5 75t-11.5 85q0 41 10 80t26 71zM309 459q0 -80 55.5 -135.5t137.5 -55.5t137 55.5t55 135.5q0 84 -55 139t-137 55t-137.5 -55t-55.5 -139z" />
<glyph unicode="&#xa5;" horiz-adv-x="1118" d="M102 1061h154l301 -496l305 496h154l-367 -596h178v-121h-202v-82h202v-121h-202v-141h-133v141h-203v121h203v82h-203v121h178z" />
<glyph unicode="&#xa6;" horiz-adv-x="331" d="M102 -131v539h127v-539h-127zM102 653v539h127v-539h-127z" />
<glyph unicode="&#xa7;" horiz-adv-x="876" d="M102 463q0 86 52.5 135t124.5 72q-41 27 -67 66.5t-26 105.5q0 61 28 103t72 69.5t96 40t101 12.5q31 0 96.5 -5t155.5 -40l-35 -111q-70 23 -130 27t-81 4q-29 0 -58.5 -5t-54 -16.5t-41 -31t-16.5 -47.5q0 -39 34 -61.5t84 -39t109.5 -34t110 -46t84 -73.5t33.5 -119 q0 -88 -44 -142.5t-109 -78.5q33 -29 51 -67t18 -91q0 -61 -23.5 -107t-62.5 -76t-89 -44.5t-103 -14.5q-63 0 -123 6.5t-150 30.5l41 119q45 -12 79 -18t58.5 -9.5t44 -3.5h39.5q63 0 109.5 28t46.5 89q0 45 -34 69.5t-84 43t-109.5 34t-109.5 42t-84 69.5t-34 115z M236 463q0 -37 30.5 -59.5t71.5 -34t82.5 -14.5t64.5 -3q63 0 109.5 28t46.5 89q0 31 -22.5 49.5t-54.5 28.5t-65.5 13t-58.5 3q-92 0 -148 -21.5t-56 -78.5z" />
<glyph unicode="&#xa8;" horiz-adv-x="681" d="M102 1147v153h134v-153h-134zM446 1147v153h134v-153h-134z" />
<glyph unicode="&#xa9;" horiz-adv-x="1249" d="M102 512q0 109 41 204t112 165.5t166 111.5t204 41t204 -41t165.5 -111.5t111.5 -165.5t41 -204t-41 -204t-111.5 -165.5t-166 -111.5t-203.5 -41q-109 0 -204 41t-166 111.5t-112 165.5t-41 204zM225 508q0 -84 32 -156.5t85 -126t126 -85t157 -31.5q82 0 155.5 31.5 t127 85t85 126t31.5 156.5q0 82 -31.5 155.5t-85 127t-127 85t-155.5 31.5q-84 0 -157 -31.5t-126 -85t-85 -127t-32 -155.5zM365 432v141q0 76 16 125.5t50 78t86 39.5t124 11q47 0 94 -4t76 -14l-12 -96q-8 2 -28.5 4t-44.5 4t-47.5 3t-37.5 1q-51 0 -84 -3t-51.5 -17.5 t-25.5 -45t-7 -86.5v-141q0 -55 7 -86t25.5 -45t51.5 -17t84 -3q14 0 37.5 1t47.5 3t44.5 4t28.5 4l12 -96q-29 -10 -76 -14.5t-94 -4.5q-72 0 -124 11.5t-86 40t-50 77.5t-16 125z" />
<glyph unicode="&#xaa;" horiz-adv-x="706" d="M102 612q0 98 60.5 154.5t171.5 56.5h149v33q0 59 -37.5 76.5t-101.5 17.5q-23 0 -72 -3t-122 -23l-29 108q59 23 120.5 29t102.5 6q57 0 105.5 -10t83 -36t53 -69t18.5 -108v-420h-121v70q-39 -41 -85 -59.5t-91 -18.5q-106 0 -155.5 52t-49.5 144zM225 612 q0 -51 26 -65.5t77 -14.5q82 0 155 89v86h-121q-25 0 -48 -4.5t-43.5 -15.5t-33 -29.5t-12.5 -45.5z" />
<glyph unicode="&#xab;" horiz-adv-x="935" d="M102 412l238 409h152l-236 -409l236 -412h-152zM444 412l238 409h152l-236 -409l236 -412h-152z" />
<glyph unicode="&#xac;" horiz-adv-x="878" d="M102 377v127h674v-389h-127v262h-547z" />
<glyph unicode="&#xad;" horiz-adv-x="1050" />
<glyph unicode="&#xae;" horiz-adv-x="1249" d="M102 512q0 109 41 204t112 165.5t166 111.5t204 41t204 -41t165.5 -111.5t111.5 -165.5t41 -204t-41 -204t-111.5 -165.5t-166 -111.5t-203.5 -41q-109 0 -204 41t-166 111.5t-112 165.5t-41 204zM225 508q0 -84 32 -156.5t85 -126t126 -85t157 -31.5q82 0 155.5 31.5 t127 85t85 126t31.5 156.5q0 82 -31.5 155.5t-85 127t-127 85t-155.5 31.5q-84 0 -157 -31.5t-126 -85t-85 -127t-32 -155.5zM414 215v608h233q61 0 101 -5t64 -24.5t32 -57.5t8 -105v-8q0 -78 -9 -126t-61 -59l88 -223h-112l-88 215h-148v-215h-108zM522 532h125 q33 0 52.5 1.5t29.5 10.5t12 26.5t2 52.5v8q0 33 -2 51t-12 27.5t-29.5 10.5t-52.5 1h-125v-189z" />
<glyph unicode="&#xaf;" horiz-adv-x="884" d="M102 887v127h680v-127h-680z" />
<glyph unicode="&#xb0;" horiz-adv-x="649" d="M102 844q0 47 17.5 88t47.5 70.5t70 47t85 17.5q47 0 88 -17.5t71.5 -47t48 -70.5t17.5 -88t-17.5 -87t-48 -70t-71.5 -47t-88 -17q-45 0 -85 17t-70 47t-47.5 70t-17.5 87zM221 844q0 -43 30 -67.5t71 -24.5t65.5 24.5t24.5 67.5q0 41 -25 69.5t-65 28.5 q-41 0 -71 -28.5t-30 -69.5z" />
<glyph unicode="&#xb1;" horiz-adv-x="917" d="M102 535v127h291v319h133v-319h289v-127h-289v-316h-133v316h-291zM104 0v127h711v-127h-711z" />
<glyph unicode="&#xb2;" horiz-adv-x="620" d="M102 860v27q0 109 44 144.5t159 35.5q113 0 163 -35t50 -145q0 -74 -36 -116t-82 -74.5t-92 -67.5t-66 -92h266v-107h-402v80q0 76 45.5 126t100.5 89t100 76t45 86q0 59 -18.5 69.5t-73.5 10.5q-41 0 -61.5 -10.5t-20.5 -69.5v-27h-121z" />
<glyph unicode="&#xb3;" horiz-adv-x="647" d="M102 600v27h121v-13q0 -31 5 -47t16.5 -24t29 -9.5t43.5 -1.5q61 0 84 10.5t23 71.5v9q0 45 -18.5 53t-67.5 8h-62v115h41q61 0 84 10t23 68q0 55 -22.5 64t-84.5 9q-53 0 -73.5 -8t-20.5 -59v-27h-121v27q0 111 50.5 147.5t164.5 36.5q115 0 171.5 -37t56.5 -147 q0 -55 -15.5 -87t-37.5 -55q20 -20 36.5 -53t16.5 -80v-8q0 -111 -56.5 -147.5t-171.5 -36.5t-165 36.5t-50 147.5z" />
<glyph unicode="&#xb4;" horiz-adv-x="462" d="M102 786l93 281h165l-149 -281h-109z" />
<glyph unicode="&#xb5;" horiz-adv-x="831" d="M98 -369v1188h133v-543q0 -33 2.5 -62.5t12.5 -51t30.5 -34.5t57.5 -13t111.5 23.5t154.5 72.5v608h133v-819h-129l-4 90q-61 -47 -134 -73.5t-138 -26.5q-25 0 -52.5 5t-44.5 28v-392h-133z" />
<glyph unicode="&#xb6;" horiz-adv-x="989" d="M102 657q0 78 28 146.5t76 123t112.5 89.5t140.5 45h47h381v-1430h-133v1305h-162v-1305h-133v627q-76 8 -140.5 43t-112.5 89t-76 122t-28 145z" />
<glyph unicode="&#xb7;" horiz-adv-x="473" d="M102 397q0 57 39 96t95 39q57 0 96 -38.5t39 -96.5q0 -55 -39 -94t-96 -39q-55 0 -94.5 39t-39.5 94z" />
<glyph unicode="&#xb8;" horiz-adv-x="382" d="M102 -334l72 281h107l-56 -281h-123z" />
<glyph unicode="&#xb9;" horiz-adv-x="477" d="M102 999l166 62h107v-637h-121v508l-127 -39z" />
<glyph unicode="&#xba;" horiz-adv-x="811" d="M102 774q0 63 24 118.5t65.5 96.5t97.5 64.5t117 23.5q63 0 118.5 -23.5t96.5 -64.5t64.5 -96t23.5 -119q0 -63 -23.5 -118.5t-64.5 -96.5t-96.5 -64.5t-118.5 -23.5q-61 0 -117 23.5t-97.5 64.5t-65.5 96.5t-24 118.5zM236 774q0 -72 49 -122t121 -50q37 0 67.5 13.5 t54 37t37 55t13.5 66.5t-13.5 66.5t-37 55.5t-54.5 37t-67 13q-72 0 -121 -50t-49 -122z" />
<glyph unicode="&#xbb;" horiz-adv-x="935" d="M102 0l236 412l-236 409h152l238 -409l-238 -412h-152zM444 0l236 412l-236 409h152l238 -409l-238 -412h-152z" />
<glyph unicode="&#xbc;" horiz-adv-x="1261" d="M102 999l166 62h107v-637h-121v508l-127 -39zM287 0l501 1055h138l-502 -1055h-137zM674 123v110l282 404h134v-399h69v-115h-69v-123h-121v123h-295zM813 238h156v227z" />
<glyph unicode="&#xbd;" horiz-adv-x="1314" d="M102 999l166 62h107v-637h-121v508l-127 -39zM287 0l501 1055h138l-502 -1055h-137zM797 430v27q0 109 44 144.5t158 35.5q113 0 163 -35t50 -145q0 -74 -35.5 -116t-81.5 -75t-92.5 -67.5t-66.5 -92.5h266v-106h-401v80q0 76 45 126t100 89t100.5 76t45.5 86 q0 59 -18.5 69.5t-74.5 10.5q-41 0 -61 -10.5t-20 -69.5v-27h-121z" />
<glyph unicode="&#xbe;" horiz-adv-x="1396" d="M102 600v27h121v-13q0 -31 5 -47t16.5 -24t29 -9.5t43.5 -1.5q61 0 84 10.5t23 71.5v9q0 45 -18.5 53t-67.5 8h-62v115h41q61 0 84 10t23 68q0 55 -22.5 64t-84.5 9q-53 0 -73.5 -8t-20.5 -59v-27h-121v27q0 111 50.5 147.5t164.5 36.5q115 0 171.5 -37t56.5 -147 q0 -55 -15.5 -87t-37.5 -55q20 -20 36.5 -53t16.5 -80v-8q0 -111 -56.5 -147.5t-171.5 -36.5t-165 36.5t-50 147.5zM422 0h137l502 1055h-137zM809 123h295v-123h121v123h69v115h-69v399h-133l-283 -404v-110zM948 238l156 227v-227h-156z" />
<glyph unicode="&#xbf;" horiz-adv-x="770" d="M102 248q0 68 20.5 117t51.5 86.5t66.5 68.5t66.5 61.5t51.5 64.5t20.5 81v98h133v-98q0 -70 -20.5 -118t-51 -85t-66.5 -65.5t-67 -59t-51 -66.5t-20 -85q0 -31 16 -54.5t41.5 -39t57.5 -22.5t63 -7q41 0 88 7t125 40l41 -119q-43 -16 -78 -26.5t-65.5 -16.5t-59.5 -8 t-62 -2q-55 0 -108 15.5t-96 46t-70 76.5t-27 110zM379 913v154h133v-154h-133z" />
<glyph unicode="&#xc0;" horiz-adv-x="921" d="M10 0h137l99 283h430l98 -283h137l-374 1061h-150zM256 1427h166l92 -280h-108zM291 410l170 489l172 -489h-342z" />
<glyph unicode="&#xc1;" horiz-adv-x="921" d="M10 0h137l99 283h430l98 -283h137l-374 1061h-150zM291 410l170 489l172 -489h-342zM414 1147l92 280h166l-150 -280h-108z" />
<glyph unicode="&#xc2;" horiz-adv-x="921" d="M10 0h137l99 283h430l98 -283h137l-374 1061h-150zM260 1147l111 278h180l111 -278h-134l-67 184l-68 -184h-133zM291 410l170 489l172 -489h-342z" />
<glyph unicode="&#xc3;" horiz-adv-x="921" d="M10 0l377 1061h150l374 -1061h-137l-98 283h-430l-99 -283h-137zM180 1243q51 45 90 59.5t76 14.5q27 0 45.5 -7t40 -14.5t50 -14.5t75.5 -7q10 0 34.5 9t51.5 34l80 -96q-51 -45 -90 -59.5t-76 -14.5q-49 0 -76.5 7t-48 15.5t-39 14.5t-47.5 6q-10 0 -34.5 -9.5 t-51.5 -33.5zM291 410h342l-172 489z" />
<glyph unicode="&#xc4;" horiz-adv-x="921" d="M10 0l377 1061h150l374 -1061h-137l-98 283h-430l-99 -283h-137zM223 1147v153h133v-153h-133zM291 410h342l-172 489zM567 1147v153h133v-153h-133z" />
<glyph unicode="&#xc5;" horiz-adv-x="921" d="M10 0l377 1061h150l374 -1061h-137l-98 283h-430l-99 -283h-137zM272 1339q0 39 14.5 74t40 61.5t59.5 41t73 14.5q80 0 135 -55.5t55 -135.5q0 -39 -14 -73.5t-41 -61t-61.5 -42t-73.5 -15.5t-73 15.5t-59.5 42t-40 61t-14.5 73.5zM291 410h342l-172 489zM354 1339 q0 -43 31 -73.5t74 -30.5q51 0 78.5 30.5t27.5 73.5q0 35 -27.5 66t-78.5 31q-43 0 -74 -31t-31 -66z" />
<glyph unicode="&#xc6;" horiz-adv-x="1394" d="M0 0l651 1061h682v-125h-547v-334h504v-125h-504v-352h547v-125h-680v258h-344l-153 -258h-156zM385 383h268v448z" />
<glyph unicode="&#xc7;" horiz-adv-x="854" d="M82 389v281q0 119 28.5 195.5t86 121.5t142.5 62.5t198 17.5q70 0 147.5 -6t130.5 -29l-29 -112q-18 6 -52 10t-70.5 7t-71.5 4t-55 1q-74 0 -133.5 -13.5t-101.5 -45t-64.5 -83.5t-22.5 -130v-281q0 -78 22.5 -130t64.5 -85t101.5 -46t133.5 -13q20 0 56 2t72.5 5 t70.5 6t50 7l29 -108q-53 -20 -131 -28.5t-147 -8.5q-104 0 -189.5 18.5t-144 63.5t-90 121.5t-31.5 195.5zM385 -334l72 281h106l-55 -281h-123z" />
<glyph unicode="&#xc8;" horiz-adv-x="854" d="M113 0v1061h680v-125h-547v-334h504v-125h-504v-352h547v-125h-680zM287 1427h166l92 -280h-109z" />
<glyph unicode="&#xc9;" horiz-adv-x="854" d="M113 0h680v125h-547v352h504v125h-504v334h547v125h-680v-1061zM408 1147l92 280h166l-150 -280h-108z" />
<glyph unicode="&#xca;" horiz-adv-x="854" d="M113 0h680v125h-547v352h504v125h-504v334h547v125h-680v-1061zM258 1147l111 278h180l110 -278h-133l-67 184l-68 -184h-133z" />
<glyph unicode="&#xcb;" horiz-adv-x="854" d="M113 0v1061h680v-125h-547v-334h504v-125h-504v-352h547v-125h-680zM223 1147v153h133v-153h-133zM567 1147v153h133v-153h-133z" />
<glyph unicode="&#xcc;" d="M-27 1427h166l92 -280h-108zM113 0v1061h133v-1061h-133z" />
<glyph unicode="&#xcd;" d="M113 0h133v1061h-133v-1061zM127 1147l92 280h166l-149 -280h-109z" />
<glyph unicode="&#xce;" d="M-20 1147l110 278h180l111 -278h-133l-68 184l-67 -184h-133zM113 0h133v1061h-133v-1061z" />
<glyph unicode="&#xcf;" d="M-29 1147v153h133v-153h-133zM113 0v1061h133v-1061h-133zM254 1147v153h133v-153h-133z" />
<glyph unicode="&#xd0;" horiz-adv-x="993" d="M20 477v125h119v459h447q92 0 154.5 -18.5t100.5 -59.5t54 -107.5t16 -162.5v-369q0 -96 -16 -161.5t-54 -106.5t-100.5 -58.5t-154.5 -17.5h-447v477h-119zM272 125h314q113 0 152.5 48t39.5 171v369q0 125 -40 173t-152 48h-314v-332h252v-125h-252v-352z" />
<glyph unicode="&#xd1;" horiz-adv-x="1036" d="M113 0v1061h204l474 -899v899h133v-1061h-195l-483 893v-893h-133zM231 1243q51 45 90 59.5t76 14.5q27 0 45.5 -7t40 -14.5t50 -14.5t75.5 -7q10 0 35 9t51 34l80 -96q-51 -45 -90 -59.5t-76 -14.5q-49 0 -76.5 7t-48 15.5t-39 14.5t-47.5 6q-10 0 -34.5 -9.5 t-51.5 -33.5z" />
<glyph unicode="&#xd2;" horiz-adv-x="968" d="M82 389v279q0 119 20.5 196.5t67.5 122.5t124 62.5t191 17.5q115 0 192 -17.5t124 -62.5t66.5 -123t19.5 -196v-279q0 -119 -19.5 -195.5t-66.5 -121.5t-124 -63.5t-192 -18.5t-191.5 18.5t-123.5 63.5t-67.5 121.5t-20.5 195.5zM215 389q0 -92 15.5 -146.5t47 -83 t83 -36.5t122.5 -8q72 0 123 8t84 36.5t48.5 83t15.5 146.5v279q0 92 -15.5 146t-47.5 83t-83 37t-123 8q-74 0 -125 -8t-82.5 -37t-47 -83t-15.5 -146v-279zM295 1427h166l92 -280h-109z" />
<glyph unicode="&#xd3;" horiz-adv-x="968" d="M82 389q0 -119 20.5 -195.5t67.5 -121.5t123.5 -63.5t191.5 -18.5t192 18.5t124 63.5t66.5 121.5t19.5 195.5v279q0 119 -19.5 196.5t-66.5 122.5t-124 62.5t-192 17.5t-191.5 -17.5t-123.5 -62.5t-67.5 -123t-20.5 -196v-279zM215 389v279q0 92 15.5 146t47 83t82.5 37 t125 8q72 0 123 -8t83 -37t47.5 -83t15.5 -146v-279q0 -92 -15.5 -146.5t-48.5 -83t-84 -36.5t-123 -8t-123 8t-82.5 36.5t-47 83t-15.5 146.5zM424 1147l92 280h166l-150 -280h-108z" />
<glyph unicode="&#xd4;" horiz-adv-x="968" d="M82 389q0 -119 20.5 -195.5t67.5 -121.5t123.5 -63.5t191.5 -18.5t192 18.5t124 63.5t66.5 121.5t19.5 195.5v279q0 119 -19.5 196.5t-66.5 122.5t-124 62.5t-192 17.5t-191.5 -17.5t-123.5 -62.5t-67.5 -123t-20.5 -196v-279zM215 389v279q0 92 15.5 146t47 83t82.5 37 t125 8q72 0 123 -8t83 -37t47.5 -83t15.5 -146v-279q0 -92 -15.5 -146.5t-48.5 -83t-84 -36.5t-123 -8t-123 8t-82.5 36.5t-47 83t-15.5 146.5zM287 1147l110 278h181l110 -278h-133l-68 184l-67 -184h-133z" />
<glyph unicode="&#xd5;" horiz-adv-x="968" d="M82 389v279q0 119 20.5 196.5t67.5 122.5t124 62.5t191 17.5q115 0 192 -17.5t124 -62.5t66.5 -123t19.5 -196v-279q0 -119 -19.5 -195.5t-66.5 -121.5t-124 -63.5t-192 -18.5t-191.5 18.5t-123.5 63.5t-67.5 121.5t-20.5 195.5zM211 1243q51 45 90 59.5t76 14.5 q27 0 45 -7t39.5 -14.5t50.5 -14.5t76 -7q10 0 34.5 9t51.5 34l80 -96q-51 -45 -90 -59.5t-76 -14.5q-49 0 -77 7t-48.5 15.5t-38.5 14.5t-47 6q-10 0 -35 -9.5t-51 -33.5zM215 389q0 -92 15.5 -146.5t47 -83t83 -36.5t122.5 -8q72 0 123 8t84 36.5t48.5 83t15.5 146.5v279 q0 92 -15.5 146t-47.5 83t-83 37t-123 8q-74 0 -125 -8t-82.5 -37t-47 -83t-15.5 -146v-279z" />
<glyph unicode="&#xd6;" horiz-adv-x="968" d="M82 389v279q0 119 20.5 196.5t67.5 122.5t124 62.5t191 17.5q115 0 192 -17.5t124 -62.5t66.5 -123t19.5 -196v-279q0 -119 -19.5 -195.5t-66.5 -121.5t-124 -63.5t-192 -18.5t-191.5 18.5t-123.5 63.5t-67.5 121.5t-20.5 195.5zM215 389q0 -92 15.5 -146.5t47 -83 t83 -36.5t122.5 -8q72 0 123 8t84 36.5t48.5 83t15.5 146.5v279q0 92 -15.5 146t-47.5 83t-83 37t-123 8q-74 0 -125 -8t-82.5 -37t-47 -83t-15.5 -146v-279zM244 1147v153h133v-153h-133zM588 1147v153h133v-153h-133z" />
<glyph unicode="&#xd7;" horiz-adv-x="794" d="M102 203l203 203l-203 204l88 88l205 -202l203 202l94 -94l-203 -203l203 -204l-88 -88l-205 202l-202 -202z" />
<glyph unicode="&#xd8;" horiz-adv-x="968" d="M82 389v279q0 119 20.5 196.5t67.5 122.5t124 62.5t191 17.5q74 0 129 -6l41 106h136l-52 -139q82 -39 115 -123t33 -237v-279q0 -119 -19.5 -195.5t-66.5 -121.5t-124 -63.5t-192 -18.5q-74 0 -129 6l-53 -127h-137l65 160q-82 39 -115.5 124t-33.5 236zM215 389 q0 -94 15.5 -148.5t48.5 -82.5l290 780q-18 4 -39.5 4h-44.5q-74 0 -125 -8t-82.5 -37t-47 -83t-15.5 -146v-279zM401 117q18 -2 39 -2h43q72 0 123 8t84 36.5t48.5 83t15.5 146.5v279q0 92 -15.5 146t-48.5 83z" />
<glyph unicode="&#xd9;" horiz-adv-x="983" d="M98 389v672h133v-672q0 -92 14.5 -146.5t45.5 -83t80 -36.5t121 -8t122 8t80.5 36.5t44 83t13.5 146.5v672h133v-672q0 -119 -18.5 -195.5t-63.5 -121.5t-121 -63.5t-188 -18.5q-115 0 -192 18.5t-122 63.5t-63.5 121.5t-18.5 195.5zM317 1427h166l92 -280h-108z" />
<glyph unicode="&#xda;" horiz-adv-x="983" d="M98 389q0 -119 18.5 -195.5t63.5 -121.5t122 -63.5t192 -18.5q113 0 188.5 18.5t120.5 63.5t63.5 121.5t18.5 195.5v672h-133v-672q0 -92 -13.5 -146.5t-44 -83t-81 -36.5t-121.5 -8q-72 0 -121 8t-80 36.5t-45.5 83t-14.5 146.5v672h-133v-672zM436 1147l92 280h166 l-149 -280h-109z" />
<glyph unicode="&#xdb;" horiz-adv-x="983" d="M98 389q0 -119 18.5 -195.5t63.5 -121.5t122 -63.5t192 -18.5q113 0 188.5 18.5t120.5 63.5t63.5 121.5t18.5 195.5v672h-133v-672q0 -92 -13.5 -146.5t-44 -83t-81 -36.5t-121.5 -8q-72 0 -121 8t-80 36.5t-45.5 83t-14.5 146.5v672h-133v-672zM289 1147l110 278h181 l110 -278h-133l-68 184l-67 -184h-133z" />
<glyph unicode="&#xdc;" horiz-adv-x="983" d="M98 389v672h133v-672q0 -92 14.5 -146.5t45.5 -83t80 -36.5t121 -8t122 8t80.5 36.5t44 83t13.5 146.5v672h133v-672q0 -119 -18.5 -195.5t-63.5 -121.5t-121 -63.5t-188 -18.5q-115 0 -192 18.5t-122 63.5t-63.5 121.5t-18.5 195.5zM252 1147v153h133v-153h-133z M596 1147v153h133v-153h-133z" />
<glyph unicode="&#xdd;" horiz-adv-x="913" d="M0 1061l389 -637v-424h133v424l391 637h-153l-305 -496l-301 496h-154zM403 1147l93 280h166l-150 -280h-109z" />
<glyph unicode="&#xde;" horiz-adv-x="925" d="M113 0v1061h133v-209h274q92 0 153.5 -11.5t99.5 -45t54.5 -93t16.5 -155.5v-8q0 -96 -16.5 -156.5t-54.5 -93.5t-99.5 -44.5t-153.5 -11.5h-274v-233h-133zM246 358h274q55 0 92 5.5t58.5 24t31 54t9.5 97.5v8q0 61 -9.5 97t-31 54.5t-58.5 23.5t-92 5h-274v-369z" />
<glyph unicode="&#xdf;" horiz-adv-x="915" d="M102 0v625q0 119 11.5 202.5t48.5 137t105.5 78t183.5 24.5q88 0 155.5 -12.5t113.5 -42t69.5 -78.5t23.5 -125q0 -53 -4 -89t-14.5 -62.5t-30 -45t-51.5 -32.5q51 -37 75.5 -103.5t24.5 -152.5v-25q-2 -90 -19.5 -147.5t-55.5 -91t-97 -47t-147 -13.5v125q55 0 91 8 t57.5 29.5t29.5 59.5t8 100q0 61 -13.5 100t-39 60.5t-66.5 29.5t-96 8h-21v125h50q55 0 91 3t57.5 18.5t29.5 48.5t8 94q0 49 -16.5 75.5t-47 39t-72.5 15.5t-93 3q-72 0 -115 -15.5t-65.5 -52t-28.5 -97t-6 -150.5v-627h-134z" />
<glyph unicode="&#xe0;" horiz-adv-x="768" d="M61 244q0 125 79 185t220 60h193v95q0 76 -50 98.5t-130 22.5q-27 0 -90.5 -4.5t-161.5 -28.5l-37 114q78 29 157 36t132 7q76 0 134 -13t98 -46t60.5 -89t20.5 -140v-541h-133v90q-47 -55 -107.5 -77.5t-119.5 -22.5q-137 0 -201 68.5t-64 185.5zM195 244 q0 -129 131 -129q55 0 117.5 25.5t109.5 84.5v140h-182q-31 0 -63 -6.5t-57.5 -19.5t-40.5 -36.5t-15 -58.5zM227 1196h166l92 -281h-108z" />
<glyph unicode="&#xe1;" horiz-adv-x="768" d="M61 244q0 125 79 185t220 60h193v95q0 76 -50 98.5t-130 22.5q-27 0 -90.5 -4.5t-161.5 -28.5l-37 114q78 29 157 36t132 7q76 0 134 -13t98 -46t60.5 -89t20.5 -140v-541h-133v90q-47 -55 -107.5 -77.5t-119.5 -22.5q-137 0 -201 68.5t-64 185.5zM195 244 q0 -129 131 -129q55 0 117.5 25.5t109.5 84.5v140h-182q-31 0 -63 -6.5t-57.5 -19.5t-40.5 -36.5t-15 -58.5zM297 915l92 281h166l-149 -281h-109z" />
<glyph unicode="&#xe2;" horiz-adv-x="768" d="M61 244q0 -117 63.5 -185.5t201.5 -68.5q59 0 119.5 22.5t107.5 77.5v-90h133v541q0 84 -20.5 140t-60.5 89t-98 46t-134 13q-53 0 -132 -7t-157 -36l37 -114q98 25 161.5 29t90.5 4q80 0 130 -23t50 -98v-95h-193q-141 0 -220 -60t-79 -185zM172 915l111 279h180 l110 -279h-133l-67 185l-68 -185h-133zM195 244q0 35 15 58.5t40.5 36.5t57.5 19.5t63 6.5h182v-140q-47 -59 -109.5 -84.5t-117.5 -25.5q-131 0 -131 129z" />
<glyph unicode="&#xe3;" horiz-adv-x="768" d="M61 244q0 125 79 185t220 60h193v95q0 76 -50 98.5t-130 22.5q-27 0 -90.5 -4.5t-161.5 -28.5l-37 114q78 29 157 36t132 7q76 0 134 -13t98 -46t60.5 -89t20.5 -140v-541h-133v90q-47 -55 -107.5 -77.5t-119.5 -22.5q-137 0 -201 68.5t-64 185.5zM121 1012q51 45 90 59 t76 14q27 0 45 -7t39.5 -14t50.5 -14.5t76 -7.5q10 0 34.5 9.5t51.5 33.5l80 -96q-51 -45 -90 -59.5t-76 -14.5q-49 0 -77 7.5t-48.5 15.5t-39 14t-46.5 6q-10 0 -35 -9t-51 -34zM195 244q0 -129 131 -129q55 0 117.5 25.5t109.5 84.5v140h-182q-31 0 -63 -6.5t-57.5 -19.5 t-40.5 -36.5t-15 -58.5z" />
<glyph unicode="&#xe4;" horiz-adv-x="768" d="M61 244q0 125 79 185t220 60h193v95q0 76 -50 98.5t-130 22.5q-27 0 -90.5 -4.5t-161.5 -28.5l-37 114q78 29 157 36t132 7q76 0 134 -13t98 -46t60.5 -89t20.5 -140v-541h-133v90q-47 -55 -107.5 -77.5t-119.5 -22.5q-137 0 -201 68.5t-64 185.5zM160 915v154h133v-154 h-133zM195 244q0 -129 131 -129q55 0 117.5 25.5t109.5 84.5v140h-182q-31 0 -63 -6.5t-57.5 -19.5t-40.5 -36.5t-15 -58.5zM504 915v154h133v-154h-133z" />
<glyph unicode="&#xe5;" horiz-adv-x="768" d="M61 244q0 125 79 185t220 60h193v95q0 76 -50 98.5t-130 22.5q-27 0 -90.5 -4.5t-161.5 -28.5l-37 114q78 29 157 36t132 7q76 0 134 -13t98 -46t60.5 -89t20.5 -140v-541h-133v90q-47 -55 -107.5 -77.5t-119.5 -22.5q-137 0 -201 68.5t-64 185.5zM195 244 q0 -129 131 -129q55 0 117.5 25.5t109.5 84.5v140h-182q-31 0 -63 -6.5t-57.5 -19.5t-40.5 -36.5t-15 -58.5zM215 1108q0 39 14.5 74t40 61.5t59 40.5t72.5 14q80 0 135.5 -55t55.5 -135q0 -39 -14.5 -74t-41 -61.5t-61.5 -42t-74 -15.5t-72.5 15.5t-59 42t-40 61.5 t-14.5 74zM297 1108q0 -43 30.5 -73.5t73.5 -30.5q51 0 79 30.5t28 73.5q0 35 -27.5 65.5t-79.5 30.5q-43 0 -73.5 -30.5t-30.5 -65.5z" />
<glyph unicode="&#xe6;" horiz-adv-x="1265" d="M61 244q0 125 79 185t220 60h193v95q0 76 -50 98.5t-130 22.5q-27 0 -90.5 -4.5t-161.5 -28.5l-37 114q78 29 156.5 36t132.5 7q86 0 148.5 -17t103.5 -62q74 80 256 79q92 0 153.5 -20.5t98 -63.5t53 -111.5t16.5 -162.5v-113h-514v-47q0 -61 18.5 -99t52.5 -59.5 t81 -29.5t102 -8q16 0 69.5 12t139.5 49l53 -102q-37 -29 -74.5 -46.5t-72.5 -25.5t-64.5 -10t-50.5 -2q-119 0 -194.5 25.5t-122.5 93.5q-25 -35 -64 -58.5t-82 -37t-84 -18.5t-69 -5q-137 0 -201 68.5t-64 185.5zM195 244q0 -129 131 -129q55 0 117.5 19.5t109.5 78.5v152 h-182q-31 0 -63 -6.5t-57.5 -19.5t-40.5 -36.5t-15 -58.5zM688 489h381q-4 106 -43 161t-145 55q-104 0 -146.5 -54.5t-46.5 -161.5z" />
<glyph unicode="&#xe7;" horiz-adv-x="708" d="M82 311v197q0 94 20.5 156.5t63.5 99.5t109.5 51t156.5 14q55 0 123 -7t113 -23l-23 -115q-14 4 -43 8t-61.5 7t-62 4.5t-46.5 1.5q-55 0 -96 -8.5t-67.5 -30t-40 -59.5t-13.5 -99v-197q0 -61 13.5 -99t40 -59.5t67.5 -29.5t96 -8q16 0 46 1t62.5 4t61.5 6t43 7l23 -113 q-45 -16 -113 -23t-123 -7q-90 0 -156.5 14t-109.5 51t-63.5 98.5t-20.5 157.5zM295 -334l72 281h106l-55 -281h-123z" />
<glyph unicode="&#xe8;" horiz-adv-x="782" d="M72 313v195q0 94 17 156.5t55 99.5t100.5 51t152.5 14q92 0 153.5 -14t98.5 -51t53.5 -99.5t16.5 -156.5v-113h-514v-84q0 -61 18.5 -99t52 -59.5t81 -29.5t102.5 -8q16 0 69.5 12t139.5 49l53 -102q-37 -29 -75 -46.5t-72.5 -25.5t-64.5 -10t-50 -2q-92 0 -164 14 t-121 51t-75.5 99.5t-26.5 158.5zM205 526h381q-2 53 -11.5 88t-31 54.5t-57.5 28t-89 8.5q-104 0 -146 -36t-46 -143zM225 1196h166l92 -281h-108z" />
<glyph unicode="&#xe9;" horiz-adv-x="782" d="M72 313v195q0 94 17 156.5t55 99.5t100.5 51t152.5 14q92 0 153.5 -14t98.5 -51t53.5 -99.5t16.5 -156.5v-113h-514v-84q0 -61 18.5 -99t52 -59.5t81 -29.5t102.5 -8q16 0 69.5 12t139.5 49l53 -102q-37 -29 -75 -46.5t-72.5 -25.5t-64.5 -10t-50 -2q-92 0 -164 14 t-121 51t-75.5 99.5t-26.5 158.5zM205 526h381q-2 53 -11.5 88t-31 54.5t-57.5 28t-89 8.5q-104 0 -146 -36t-46 -143zM322 915l92 281h166l-150 -281h-108z" />
<glyph unicode="&#xea;" horiz-adv-x="782" d="M72 313q0 -96 26.5 -158.5t75.5 -99.5t121 -51t164 -14q20 0 50 2t64.5 10t72.5 25.5t75 46.5l-53 102q-86 -37 -139.5 -49t-69.5 -12q-55 0 -102.5 8t-81 29.5t-52 59.5t-18.5 99v84h514v113q0 94 -16.5 156.5t-53.5 99.5t-98.5 51t-153.5 14q-90 0 -152.5 -14 t-100.5 -51t-55 -99.5t-17 -156.5v-195zM195 915l110 279h180l111 -279h-133l-68 185l-67 -185h-133zM205 526q4 106 46 142.5t146 36.5q53 0 89 -8.5t57.5 -28t31 -54t11.5 -88.5h-381z" />
<glyph unicode="&#xeb;" horiz-adv-x="782" d="M72 313v195q0 94 17 156.5t55 99.5t100.5 51t152.5 14q92 0 153.5 -14t98.5 -51t53.5 -99.5t16.5 -156.5v-113h-514v-84q0 -61 18.5 -99t52 -59.5t81 -29.5t102.5 -8q16 0 69.5 12t139.5 49l53 -102q-37 -29 -75 -46.5t-72.5 -25.5t-64.5 -10t-50 -2q-92 0 -164 14 t-121 51t-75.5 99.5t-26.5 158.5zM170 915v154h133v-154h-133zM205 526h381q-2 53 -11.5 88t-31 54.5t-57.5 28t-89 8.5q-104 0 -146 -36t-46 -143zM514 915v154h133v-154h-133z" />
<glyph unicode="&#xec;" d="M-27 1196h166l92 -281h-108zM113 0v819h133v-819h-133z" />
<glyph unicode="&#xed;" d="M113 0v819h133v-819h-133zM127 915l92 281h166l-149 -281h-109z" />
<glyph unicode="&#xee;" d="M-23 915l111 279h180l111 -279h-133l-68 185l-67 -185h-134zM113 0h133v819h-133v-819z" />
<glyph unicode="&#xef;" d="M-59 915v154h133v-154h-133zM113 0v819h133v-819h-133zM285 915v154h133v-154h-133z" />
<glyph unicode="&#xf0;" horiz-adv-x="784" d="M72 313v193q0 96 16 158.5t53 99.5t98.5 51t153.5 14h38t34 -2l-51 121h-187v96h144l-45 103h147l49 -103h189v-96h-142l107 -227q23 -49 30 -100.5t7 -114.5v-193q0 -96 -16.5 -158.5t-53.5 -99.5t-98.5 -51t-151.5 -14q-92 0 -153.5 14t-98.5 51t-53 99.5t-16 158.5z M205 311q0 -61 8 -99t29.5 -59.5t58.5 -29.5t92 -8t91 8t57.5 29.5t30 59.5t8.5 99v195q0 61 -8.5 100t-30 60.5t-57 30t-91.5 8.5q-55 0 -92 -8.5t-58.5 -30t-29.5 -60.5t-8 -100v-195z" />
<glyph unicode="&#xf1;" horiz-adv-x="843" d="M113 0v819h133v-90q74 68 136.5 84t113.5 16q61 0 107 -23.5t78 -62t48 -91t16 -109.5v-543h-133v543q0 66 -30.5 114t-106.5 48q-35 0 -92 -15.5t-135 -85.5v-604h-135zM154 1012q51 45 90 59t75 14q27 0 45.5 -7t40 -14t50 -14.5t75.5 -7.5q10 0 35 9.5t51 33.5l80 -96 q-51 -45 -90 -59.5t-76 -14.5q-49 0 -76.5 7.5t-48 15.5t-39 14t-47.5 6q-10 0 -34.5 -9t-51.5 -34z" />
<glyph unicode="&#xf2;" horiz-adv-x="784" d="M72 313v193q0 96 16 158.5t53 99.5t98.5 51t153.5 14q90 0 151.5 -14t98.5 -51t53.5 -99.5t16.5 -158.5v-193q0 -96 -16.5 -158.5t-53.5 -99.5t-98.5 -51t-151.5 -14q-92 0 -153.5 14t-98.5 51t-53 99.5t-16 158.5zM197 1196h165l93 -281h-109zM205 311q0 -61 8 -99 t29.5 -59.5t58.5 -29.5t92 -8t91 8t57.5 29.5t30 59.5t8.5 99v195q0 61 -8.5 100t-30 60.5t-57 30t-91.5 8.5q-55 0 -92 -8.5t-58.5 -30t-29.5 -60.5t-8 -100v-195z" />
<glyph unicode="&#xf3;" horiz-adv-x="784" d="M72 313v193q0 96 16 158.5t53 99.5t98.5 51t153.5 14q90 0 151.5 -14t98.5 -51t53.5 -99.5t16.5 -158.5v-193q0 -96 -16.5 -158.5t-53.5 -99.5t-98.5 -51t-151.5 -14q-92 0 -153.5 14t-98.5 51t-53 99.5t-16 158.5zM205 311q0 -61 8 -99t29.5 -59.5t58.5 -29.5t92 -8 t91 8t57.5 29.5t30 59.5t8.5 99v195q0 61 -8.5 100t-30 60.5t-57 30t-91.5 8.5q-55 0 -92 -8.5t-58.5 -30t-29.5 -60.5t-8 -100v-195zM332 915l92 281h166l-150 -281h-108z" />
<glyph unicode="&#xf4;" horiz-adv-x="784" d="M72 313q0 -96 16 -158.5t53 -99.5t98.5 -51t153.5 -14q90 0 151.5 14t98.5 51t53.5 99.5t16.5 158.5v193q0 96 -16.5 158.5t-53.5 99.5t-98.5 51t-151.5 14q-92 0 -153.5 -14t-98.5 -51t-53 -99.5t-16 -158.5v-193zM195 915l110 279h180l111 -279h-133l-68 185l-67 -185 h-133zM205 311v195q0 61 8 100t29.5 60.5t58.5 30t92 8.5t91 -8.5t57.5 -30t30 -60.5t8.5 -100v-195q0 -61 -8.5 -99t-30 -59.5t-57 -29.5t-91.5 -8q-55 0 -92 8t-58.5 29.5t-29.5 59.5t-8 99z" />
<glyph unicode="&#xf5;" horiz-adv-x="784" d="M72 313v193q0 96 16 158.5t53 99.5t98.5 51t153.5 14q90 0 151.5 -14t98.5 -51t53.5 -99.5t16.5 -158.5v-193q0 -96 -16.5 -158.5t-53.5 -99.5t-98.5 -51t-151.5 -14q-92 0 -153.5 14t-98.5 51t-53 99.5t-16 158.5zM117 1012q51 45 90 59t76 14q27 0 45 -7t39.5 -14 t50 -14.5t76.5 -7.5q10 0 34.5 9.5t51.5 33.5l79 -96q-51 -45 -89.5 -59.5t-75.5 -14.5q-49 0 -77 7.5t-48.5 15.5t-39 14t-46.5 6q-10 0 -35 -9t-51 -34zM205 311q0 -61 8 -99t29.5 -59.5t58.5 -29.5t92 -8t91 8t57.5 29.5t30 59.5t8.5 99v195q0 61 -8.5 100t-30 60.5 t-57 30t-91.5 8.5q-55 0 -92 -8.5t-58.5 -30t-29.5 -60.5t-8 -100v-195z" />
<glyph unicode="&#xf6;" horiz-adv-x="784" d="M72 313v193q0 96 16 158.5t53 99.5t98.5 51t153.5 14q90 0 151.5 -14t98.5 -51t53.5 -99.5t16.5 -158.5v-193q0 -96 -16.5 -158.5t-53.5 -99.5t-98.5 -51t-151.5 -14q-92 0 -153.5 14t-98.5 51t-53 99.5t-16 158.5zM154 915v154h133v-154h-133zM205 311q0 -61 8 -99 t29.5 -59.5t58.5 -29.5t92 -8t91 8t57.5 29.5t30 59.5t8.5 99v195q0 61 -8.5 100t-30 60.5t-57 30t-91.5 8.5q-55 0 -92 -8.5t-58.5 -30t-29.5 -60.5t-8 -100v-195zM498 915v154h133v-154h-133z" />
<glyph unicode="&#xf7;" horiz-adv-x="917" d="M102 340v127h713v-127h-713zM391 92v154h133v-154h-133zM391 561v154h133v-154h-133z" />
<glyph unicode="&#xf8;" horiz-adv-x="784" d="M72 313v193q0 96 16 158.5t53 99.5t98.5 51t153.5 14q23 0 45.5 -1t40.5 -3l39 101h135l-49 -133q59 -31 84 -98.5t25 -188.5v-193q0 -96 -16.5 -158.5t-53.5 -99.5t-98.5 -51t-151.5 -14q-25 0 -46 1t-42 3l-37 -103h-137l49 136q-59 33 -83.5 100.5t-24.5 185.5z M205 311q0 -104 28 -147l201 538q-10 2 -20.5 2.5t-20.5 0.5q-55 0 -92 -8.5t-58.5 -30t-29.5 -60.5t-8 -100v-195zM352 117q10 -2 20.5 -2h20.5q55 0 91 8t57.5 29.5t30 59.5t8.5 99v195q0 106 -29 147z" />
<glyph unicode="&#xf9;" horiz-adv-x="845" d="M98 276v543h133v-543q0 -33 2.5 -62.5t12.5 -51t30.5 -34.5t57.5 -13t111.5 23.5t154.5 72.5v608h133v-819h-129l-4 90q-80 -53 -157.5 -76.5t-129.5 -23.5q-123 0 -169 67.5t-46 218.5zM242 1196h166l92 -281h-109z" />
<glyph unicode="&#xfa;" horiz-adv-x="845" d="M98 276v543h133v-543q0 -33 2.5 -62.5t12.5 -51t30.5 -34.5t57.5 -13t111.5 23.5t154.5 72.5v608h133v-819h-129l-4 90q-80 -53 -157.5 -76.5t-129.5 -23.5q-123 0 -169 67.5t-46 218.5zM344 915l92 281h166l-149 -281h-109z" />
<glyph unicode="&#xfb;" horiz-adv-x="845" d="M98 276q0 -152 46 -219t169 -67q51 0 129 23.5t158 76.5l4 -90h129v819h-133v-608q-80 -49 -154.5 -72.5t-111.5 -23.5t-57.5 13t-30.5 34.5t-12.5 51.5t-2.5 62v543h-133v-543zM215 915l111 279h180l110 -279h-133l-67 185l-68 -185h-133z" />
<glyph unicode="&#xfc;" horiz-adv-x="845" d="M98 276v543h133v-543q0 -33 2.5 -62.5t12.5 -51t30.5 -34.5t57.5 -13t111.5 23.5t154.5 72.5v608h133v-819h-129l-4 90q-80 -53 -157.5 -76.5t-129.5 -23.5q-123 0 -169 67.5t-46 218.5zM180 915v154h133v-154h-133zM524 915v154h133v-154h-133z" />
<glyph unicode="&#xfd;" horiz-adv-x="768" d="M0 819h143l244 -661l240 661h141l-442 -1188h-142l131 344zM350 915l92 281h166l-149 -281h-109z" />
<glyph unicode="&#xfe;" horiz-adv-x="925" d="M113 -369v1430h133v-234h274q92 0 153.5 -11t99.5 -45t54.5 -93.5t16.5 -155.5v-217q0 -96 -16.5 -156.5t-54.5 -93t-99.5 -44t-153.5 -11.5h-274v-369h-133zM246 125h274q55 0 92 5t58.5 23.5t31 54.5t9.5 97v217q0 61 -9.5 97t-31 54.5t-58.5 23.5t-92 5h-274v-577z " />
<glyph unicode="&#xff;" horiz-adv-x="768" d="M0 819h143l244 -661l240 661h141l-442 -1188h-142l131 344zM147 915v154h134v-154h-134zM492 915v154h133v-154h-133z" />
<glyph unicode="&#x152;" horiz-adv-x="1417" d="M82 389v281q0 119 28.5 195.5t86 121.5t142.5 62.5t198 17.5q35 0 70.5 -1t72.5 -5h676v-125h-547v-334h504v-125h-504v-352h547v-125h-658q-41 -4 -82 -7t-79 -3q-104 0 -189.5 18.5t-144 63.5t-90 121.5t-31.5 195.5zM215 389q0 -78 22.5 -130t64.5 -85t101.5 -46 t133.5 -13q23 0 61.5 2t77.5 6v813q-39 4 -78 5t-61 1q-74 0 -133.5 -13.5t-101.5 -45t-64.5 -83.5t-22.5 -130v-281z" />
<glyph unicode="&#x153;" horiz-adv-x="1300" d="M82 313v193q0 96 16.5 158.5t53 99.5t98 51t153.5 14q94 0 156 -15t98 -54q39 39 102.5 54t155.5 15t153.5 -14t98.5 -51t53.5 -99.5t16.5 -156.5v-113h-514v-84q0 -61 18.5 -99t52 -59.5t81 -29.5t102.5 -8q16 0 69.5 12t139.5 49l53 -102q-37 -29 -75 -46.5 t-72.5 -25.5t-64.5 -10t-50 -2q-104 0 -181 18.5t-126 65.5q-37 -47 -100.5 -65.5t-166.5 -18.5q-92 0 -153.5 14t-98 51t-53 99.5t-16.5 158.5zM215 311q0 -61 8 -99t29.5 -59.5t58.5 -29.5t92 -8t91 8t57.5 29.5t30 59.5t8.5 99v215q0 55 -9.5 89t-31 54.5t-57 28 t-89.5 7.5q-55 0 -92 -8.5t-58.5 -30t-29.5 -60.5t-8 -100v-195zM723 526h381q-2 53 -11.5 88t-31 54.5t-57.5 28t-89 8.5q-104 0 -146 -36t-46 -143z" />
<glyph unicode="&#x178;" horiz-adv-x="913" d="M0 1061h154l301 -496l305 496h153l-391 -637v-424h-133v424zM217 1147v153h133v-153h-133zM561 1147v153h133v-153h-133z" />
<glyph unicode="&#x2c6;" horiz-adv-x="606" d="M102 1147l111 278h180l111 -278h-133l-68 184l-67 -184h-134z" />
<glyph unicode="&#x2dc;" horiz-adv-x="747" d="M102 993q51 45 90 59.5t76 14.5q27 0 45.5 -7t40 -14.5t50 -14.5t75.5 -7q10 0 35 9t51 34l80 -96q-51 -45 -90 -59.5t-76 -14.5q-49 0 -76.5 7t-48 15.5t-39 14.5t-47.5 6q-10 0 -34.5 -9t-51.5 -34z" />
<glyph unicode="&#x2000;" horiz-adv-x="765" />
<glyph unicode="&#x2001;" horiz-adv-x="1530" />
<glyph unicode="&#x2002;" horiz-adv-x="765" />
<glyph unicode="&#x2003;" horiz-adv-x="1530" />
<glyph unicode="&#x2004;" horiz-adv-x="510" />
<glyph unicode="&#x2005;" horiz-adv-x="382" />
<glyph unicode="&#x2006;" horiz-adv-x="255" />
<glyph unicode="&#x2007;" horiz-adv-x="255" />
<glyph unicode="&#x2008;" horiz-adv-x="191" />
<glyph unicode="&#x2009;" horiz-adv-x="306" />
<glyph unicode="&#x200a;" horiz-adv-x="85" />
<glyph unicode="&#x2010;" horiz-adv-x="796" d="M113 340v127h571v-127h-571z" />
<glyph unicode="&#x2011;" horiz-adv-x="796" d="M113 340v127h571v-127h-571z" />
<glyph unicode="&#x2012;" horiz-adv-x="796" d="M113 340v127h571v-127h-571z" />
<glyph unicode="&#x2013;" horiz-adv-x="944" d="M102 340v127h740v-127h-740z" />
<glyph unicode="&#x2014;" horiz-adv-x="1081" d="M102 340v127h877v-127h-877z" />
<glyph unicode="&#x2018;" horiz-adv-x="382" d="M102 786l72 281h107l-56 -281h-123z" />
<glyph unicode="&#x2019;" horiz-adv-x="382" d="M102 786l56 281h123l-72 -281h-107z" />
<glyph unicode="&#x201a;" horiz-adv-x="382" d="M102 -166l56 281h123l-72 -281h-107z" />
<glyph unicode="&#x201c;" horiz-adv-x="587" d="M102 786l72 281h107l-56 -281h-123zM307 786l72 281h106l-55 -281h-123z" />
<glyph unicode="&#x201d;" horiz-adv-x="587" d="M102 786l56 281h123l-72 -281h-107zM307 786l55 281h123l-71 -281h-107z" />
<glyph unicode="&#x201e;" horiz-adv-x="587" d="M102 -166l56 281h123l-72 -281h-107zM307 -166l55 281h123l-71 -281h-107z" />
<glyph unicode="&#x2022;" horiz-adv-x="503" d="M102 401q0 63 44 106.5t106 43.5q61 0 105 -43t44 -107q0 -61 -44 -104t-105 -43t-105.5 43t-44.5 104z" />
<glyph unicode="&#x2026;" horiz-adv-x="952" d="M102 0v154h134v-154h-134zM410 0v154h133v-154h-133zM717 0v154h133v-154h-133z" />
<glyph unicode="&#x202f;" horiz-adv-x="306" />
<glyph unicode="&#x2039;" horiz-adv-x="876" d="M102 293v158l672 299v-146l-516 -231l516 -230v-143z" />
<glyph unicode="&#x203a;" horiz-adv-x="876" d="M102 0v143l516 230l-516 231v146l672 -299v-158z" />
<glyph unicode="&#x205f;" horiz-adv-x="382" />
<glyph unicode="&#x20ac;" horiz-adv-x="1052" d="M102 340v125h115v147h-115v125h117q8 98 41 162t89.5 100.5t137 52t185.5 15.5q70 0 147.5 -6t130.5 -29l-28 -112q-18 6 -52 10t-71 7t-72 4t-55 1q-129 0 -213 -45t-103 -160h279v-125h-285v-147h285v-125h-283q16 -127 100.5 -176t219.5 -49q20 0 56 2t73 5t70.5 6 t50.5 7l28 -108q-53 -20 -131 -28.5t-147 -8.5q-100 0 -181 16.5t-139.5 56t-92.5 107.5t-40 170h-117z" />
<glyph unicode="&#x2122;" horiz-adv-x="1400" d="M102 922h172v-541h117v541h170v102h-459v-102zM631 381v643h172l164 -539l161 539h170v-643h-112v496l-148 -496h-141l-149 498v-498h-117z" />
<glyph unicode="&#x25fc;" horiz-adv-x="819" d="M0 0v819h819v-819h-819z" />
</font>
</defs>
</svg>
